<svg width="16" height="16" viewBox="0 0 16 16" fill="none" xmlns="http://www.w3.org/2000/svg">
<path d="M4.7386 11.1655L11.1661 4.73804C11.1764 4.72778 11.1929 4.72009 11.2144 4.72009C11.2359 4.72016 11.2525 4.72777 11.2628 4.73804C11.273 4.74837 11.2807 4.76484 11.2807 4.78638C11.2807 4.80792 11.273 4.82439 11.2628 4.83471L4.83527 11.2622C4.825 11.2725 4.80842 11.2801 4.78694 11.2802C4.7654 11.2802 4.74893 11.2724 4.7386 11.2622C4.72827 11.2519 4.72064 11.2355 4.72064 11.2139C4.72064 11.1922 4.72827 11.1759 4.7386 11.1655Z" stroke="white"/>
<path d="M4.7386 4.7378C4.74893 4.72756 4.7654 4.71984 4.78694 4.71984C4.80842 4.71992 4.825 4.72753 4.83527 4.7378L11.2628 11.1653C11.273 11.1756 11.2807 11.1921 11.2807 11.2136C11.2807 11.2352 11.273 11.2516 11.2628 11.262C11.2525 11.2722 11.2359 11.2798 11.2144 11.2799C11.1929 11.2799 11.1764 11.2722 11.1661 11.262L4.7386 4.83447C4.72827 4.82415 4.72064 4.80778 4.72064 4.78613C4.72064 4.76448 4.72827 4.74812 4.7386 4.7378Z" stroke="white"/>
</svg>
